<svg version="1" xmlns="http://www.w3.org/2000/svg" width="682.667" height="682.667" viewBox="0 0 512.000000 512.000000"><path d="M235.3 37.2c0 25.3.3 37.8 1 38.8.6.8.8 1.2.3.8-.4-.3-2.2-.2-3.9.2-1.8.5-5.2 1.2-7.7 1.5-2.5.3-6.3 1.1-8.5 1.7-2.2.5-4.8 1.2-5.7 1.4-4.3 1-5.7 1.4-13.2 3.9-15.4 5.3-38.1 17.2-48.7 25.6-2 1.6-4.1 2.9-4.6 2.9s-12.8-11.9-27.4-26.5C102.4 73 90.1 61 89.7 61 88.6 61 61 88.7 61 89.8c0 .4 11.9 12.6 26.5 27.1 14.6 14.6 26.5 26.8 26.5 27.3s-2.2 3.9-4.9 7.6c-15.1 21-27.7 51.1-30.6 73.4-.4 2.6-1 5.9-1.4 7.4l-.7 2.7H38.2L0 235.2v41.5l38.5-.1c33.6-.1 38.5.1 38.6 1.4 0 .8.2 2.4.4 3.5s.9 4.8 1.5 8.2c1.4 8.5 6.1 24.2 9.9 33.8 5.3 13.2 17 33.7 23.8 41.6.7.8 1.3 2 1.3 2.6 0 .5-11.9 12.8-26.5 27.4C72.9 409.6 61 421.9 61 422.3c0 1 27.7 28.7 28.7 28.7.4 0 12.7-11.9 27.2-26.5 14.6-14.6 26.8-26.5 27.3-26.5s3.3 1.8 6.3 4.1c19.2 14.5 49.8 27.3 75.5 31.5l9.5 1.6V511.5l20.6.3 20.6.2v-38c0-20.9.2-38.2.4-38.5.3-.2 2-.7 3.9-1 3-.5 12.8-2.4 20.5-3.9 5.2-1.1 22-7.3 31-11.6 10.2-4.7 24-13 30.6-18.1 2-1.6 4.1-2.9 4.6-2.9s12.8 11.9 27.4 26.5c14.5 14.6 26.8 26.5 27.2 26.5 1 0 28.7-27.7 28.7-28.7 0-.4-11.9-12.7-26.5-27.2-14.6-14.6-26.5-27-26.5-27.7 0-.7.4-1.5.9-1.8 1-.7 11.8-16.6 13.9-20.5 11.7-22.1 17.8-39.7 21.2-60.9.9-5.5 1.6-7.2 2.8-7.3 1 0 18.2-.1 38.5-.1l36.7-.1v-41.4l-37.2-.1c-20.5 0-37.8-.1-38.5-.1-1-.1-1.5-2-2.9-11.1-3.8-23.7-16.2-52.8-31.6-73.7-2.1-2.9-3.8-5.6-3.8-6.1s11.9-12.7 26.5-27.3c14.6-14.5 26.5-26.7 26.5-27.2 0-1-27.7-28.7-28.7-28.7-.4 0-12.7 11.9-27.2 26.5-14.6 14.6-26.8 26.5-27.3 26.5s-3.9-2.2-7.6-4.9c-21.2-15.3-47.4-26.2-74.1-30.8l-9.6-1.6.1-38.4.1-38.3h-41.4v37.2z"/></svg>